<?xml version="1.0" encoding="UTF-8"?>
<!DOCTYPE svg PUBLIC "-//W3C//DTD SVG 1.1//EN" "http://www.w3.org/Graphics/SVG/1.1/DTD/svg11.dtd">
<!-- Creator: CorelDRAW 2018 (64-Bit Evaluation Version) -->
<svg xmlns="http://www.w3.org/2000/svg" xml:space="preserve" width="0.0533346in" height="0.0533346in" version="1.1" style="shape-rendering:geometricPrecision; text-rendering:geometricPrecision; image-rendering:optimizeQuality; fill-rule:evenodd; clip-rule:evenodd"
viewBox="0 0 1.77 1.77"
 xmlns:xlink="http://www.w3.org/1999/xlink">
 <defs>
  <style type="text/css">
   <![CDATA[
    .fil0 {fill:#282829}
    .fil1 {fill:#FEFEFE;fill-rule:nonzero}
   ]]>
  </style>
 </defs>
 <g id="Layer_x0020_1">
  <metadata id="CorelCorpID_0Corel-Layer"/>
  <rect class="fil0" x="0" y="0" width="1.77" height="1.77"/>
  <path class="fil1" d="M1.07 0.49l-0.11 0c-0.01,0 -0.02,0 -0.04,0 -0.01,0 -0.02,0 -0.04,-0 -0.05,-0 -0.1,-0 -0.15,-0.01 -0.05,-0 -0.1,-0.01 -0.15,-0.01 -0.03,-0 -0.05,-0 -0.08,-0.01 -0.03,-0 -0.05,-0.01 -0.08,-0.01 -0.03,-0 -0.05,-0.02 -0.06,-0.03 -0.01,-0.02 -0.02,-0.04 -0.03,-0.06 -0,-0.01 -0,-0.02 -0,-0.02 0,-0 0.01,-0.01 0.02,-0.01 0.02,-0.01 0.03,-0.01 0.05,-0.02 0.02,-0 0.03,-0.01 0.05,-0.01 0.04,-0 0.08,-0.01 0.13,-0.01 0.04,-0.01 0.08,-0.01 0.13,-0.02 0.01,-0 0.02,-0 0.04,-0 0.01,-0 0.02,-0 0.04,-0 0.05,-0 0.11,-0 0.16,-0.01 0.05,-0 0.11,-0 0.16,-0.01 0.03,-0 0.05,-0 0.08,-0 0.03,-0 0.05,-0 0.08,-0 0.01,0 0.02,0 0.03,0.01 0.01,0 0.02,0 0.03,0.01 0.02,0 0.03,0.01 0.05,0.01 0.02,0.01 0.03,0.01 0.05,0.02 0.01,0 0.01,0.01 0.02,0.01 0.01,0.01 0.01,0.01 0.02,0.02 0.01,0.01 0.01,0.01 0.01,0.02 0,0.01 0.01,0.01 0.01,0.02 0,0.01 -0,0.02 -0.02,0.03 -0.02,0.01 -0.03,0.02 -0.04,0.03 -0.01,0.01 -0.02,0.03 -0.04,0.04 -0.02,0.02 -0.03,0.04 -0.05,0.06 -0.02,0.02 -0.03,0.04 -0.05,0.06 -0.02,0.03 -0.05,0.05 -0.07,0.08 -0.03,0.03 -0.05,0.05 -0.08,0.08 -0,0 -0.01,0.01 -0.01,0.01 -0,0 -0.01,0.01 -0.01,0.01 0.04,0.01 0.08,0.01 0.13,0.02 0.04,0.01 0.08,0.02 0.12,0.04 0,0.01 0,0.01 -0.01,0.02 -0.01,0 -0.01,0.01 -0.02,0.01 -0.01,0 -0.02,0.01 -0.02,0.01 -0.04,0.01 -0.07,0.02 -0.11,0.02 -0.04,0 -0.07,0 -0.11,0 -0.01,0 -0.02,0 -0.03,0 -0.01,0 -0.02,0 -0.03,-0 -0.02,-0 -0.03,0 -0.04,0.01 -0.01,0.01 -0.02,0.02 -0.03,0.03 -0.04,0.04 -0.07,0.08 -0.11,0.11 -0.04,0.04 -0.07,0.08 -0.11,0.12 -0.03,0.04 -0.07,0.08 -0.1,0.12 -0.03,0.04 -0.06,0.08 -0.09,0.12 -0,0 -0.01,0.01 -0.01,0.01 -0,0.01 -0.01,0.01 -0.01,0.02 0.01,0 0.02,-0 0.02,-0 0.05,-0.02 0.1,-0.03 0.15,-0.05 0.05,-0.02 0.1,-0.03 0.15,-0.04 0.03,-0.01 0.06,-0.01 0.08,-0.02 0.03,-0.01 0.06,-0.02 0.09,-0.02 0.04,-0.01 0.07,-0.02 0.11,-0.03 0.04,-0.01 0.07,-0.01 0.11,-0.01 0.02,-0 0.04,-0 0.06,0 0.02,0 0.04,0 0.06,0 0,0 0.01,0 0.01,0 0,0 0.01,0 0.01,0 0.01,0 0.01,0 0.02,0.01 0,0 0.01,0 0.01,0.01 0,0 0,0.01 0,0.01 0,0 -0,0.01 -0,0.02 -0.01,0.01 -0.02,0.02 -0.03,0.03 -0.01,0.01 -0.02,0.01 -0.03,0.02 -0.01,0 -0.02,0.01 -0.03,0.01 -0.01,0 -0.02,0.01 -0.03,0.01 -0.01,0 -0.02,0 -0.03,0 -0.03,0 -0.06,0.01 -0.08,0.01 -0.03,0.01 -0.05,0.01 -0.08,0.02 -0.06,0.01 -0.11,0.03 -0.17,0.04 -0.06,0.01 -0.11,0.03 -0.17,0.04 -0.01,0 -0.02,0.01 -0.03,0.01 -0.01,0 -0.02,0.01 -0.03,0.01 -0.04,0.01 -0.07,0.02 -0.11,0.03 -0.04,0.01 -0.07,0.01 -0.11,0.01 -0.01,0 -0.02,0 -0.04,0 -0.01,0 -0.02,0 -0.04,-0 -0.01,-0 -0.02,-0 -0.03,-0.01 -0.01,-0 -0.02,-0.01 -0.03,-0.01 -0.01,-0.01 -0.02,-0.02 -0.03,-0.03 -0,-0.01 -0.01,-0.02 -0.01,-0.04 -0,-0.03 0,-0.05 0.01,-0.07 0.01,-0.02 0.02,-0.04 0.03,-0.07 0.02,-0.05 0.05,-0.09 0.08,-0.13 0.03,-0.04 0.06,-0.08 0.1,-0.12 0.02,-0.02 0.04,-0.04 0.05,-0.06 0.02,-0.02 0.04,-0.04 0.06,-0.06 0,-0 0,-0.01 0.01,-0.01 0,-0 0.01,-0.01 0.01,-0.01 -0.02,0 -0.03,0 -0.04,0 -0.01,0 -0.03,0 -0.04,0 -0.01,0 -0.02,0 -0.03,0 -0.01,0 -0.02,0 -0.03,0 -0.01,0 -0.01,0 -0.02,0 -0.01,0 -0.01,0 -0.02,0 -0.02,0 -0.03,-0 -0.03,-0.02 -0,-0.01 -0,-0.01 0,-0.02 0,-0 0.01,-0.01 0.01,-0.01 0.02,-0.01 0.04,-0.01 0.06,-0.02 0.01,-0 0.02,-0.01 0.03,-0.01 0.01,-0 0.02,-0 0.03,-0.01 0.01,-0 0.02,-0.01 0.04,-0.01 0.01,-0 0.02,-0.01 0.04,-0.01 0.01,-0 0.02,-0 0.04,-0.01 0.01,-0 0.02,-0 0.04,-0 0.02,-0 0.04,-0.01 0.05,-0.01 0.02,-0.01 0.03,-0.02 0.05,-0.03 0.05,-0.04 0.1,-0.09 0.14,-0.13 0.05,-0.04 0.09,-0.09 0.14,-0.13 0,-0 0.01,-0 0.01,-0.01 0,-0 0.01,-0 0.01,-0 -0,-0 -0,-0 -0,-0 -0,-0 -0,-0 -0,-0z"/>
 </g>
</svg>
